<?xml version="1.0" encoding="UTF-8"?>
<svg width="381px" height="324px" viewBox="0 0 381 324" version="1.1" xmlns="http://www.w3.org/2000/svg" xmlns:xlink="http://www.w3.org/1999/xlink">
    <!-- Generator: Sketch 53 (72520) - https://sketchapp.com -->
    <title>Untitled</title>
    <desc>Created with Sketch.</desc>
    <defs>
        <polygon id="path-1" points="0 0.9529 60.5848 0.9529 60.5848 66.7079 0 66.7079"></polygon>
        <polygon id="path-3" points="0.2021 0.2944 50.4221 0.2944 50.4221 95 0.2021 95"></polygon>
    </defs>
    <g id="Page-1" stroke="none" stroke-width="1" fill="none" fill-rule="evenodd">
        <g id="Group-37">
            <path d="M20.4551,285.5598 C16.1941,287.3318 12.7221,289.7498 10.0431,292.8138 C6.5961,296.9318 5.3511,300.9988 6.3091,305.0208 C6.5001,305.9798 6.8341,306.8878 7.3141,307.7488 C8.7501,310.5278 11.2391,312.5848 14.7821,313.9248 C19.6651,315.9358 25.1941,316.1278 31.3701,314.4988 C37.5451,312.8718 42.4031,309.9538 45.9471,305.7388 C46.0411,305.5488 46.1841,305.4048 46.3781,305.3078 L46.3781,287.9308 C45.1321,286.7818 43.4091,285.7298 41.2071,284.7708 C38.7161,283.7188 36.0371,283.1918 33.1651,283.1918 C28.9501,282.9998 24.7141,283.7888 20.4551,285.5598 M28.4261,257.7718 C31.7761,257.9648 34.7921,258.5848 37.4731,259.6388 C41.0141,260.8838 43.9111,262.6778 46.1621,265.0258 C48.4101,267.3698 49.7751,269.9318 50.2551,272.7068 L50.2551,272.9948 C50.3491,273.0918 50.3991,273.2818 50.3991,273.5688 L50.3991,310.9088 C50.4931,312.0578 51.0201,312.9188 51.9791,313.4948 C53.1281,314.4528 54.6111,314.9308 56.4311,314.9308 L56.5741,314.9308 C57.0521,314.9308 57.5081,315.1228 57.9391,315.5048 C58.3691,315.8888 58.5851,316.3198 58.5851,316.7978 C58.5851,317.3718 58.3691,317.8528 57.9391,318.2338 C57.5081,318.6148 57.0521,318.8078 56.5741,318.8078 L56.4311,318.8078 C53.7491,318.8078 51.4511,318.0898 49.5371,316.6538 C47.8141,315.3148 46.8081,313.6378 46.5211,311.6268 L46.5211,311.1968 L46.3781,311.1968 L46.3781,311.0528 C46.2811,311.1498 46.1621,311.2698 46.0191,311.4108 C45.8751,311.5568 45.7541,311.6268 45.6591,311.6268 C44.5111,312.4888 43.1681,313.4468 41.6381,314.4988 C38.6691,316.3198 35.6061,317.6118 32.4471,318.3758 C31.1051,318.6638 29.4781,318.9518 27.5641,319.2388 C26.4151,319.3318 25.3131,319.3828 24.2611,319.3828 C20.3341,319.3828 16.6491,318.7108 13.2021,317.3718 C7.2651,315.0738 3.6741,311.2458 2.4311,305.8828 C2.1441,304.6398 2.0001,303.4408 2.0001,302.2908 C2.0001,298.1768 3.6741,294.2028 7.0271,290.3718 C10.0901,286.7348 14.0151,283.9328 18.8031,281.9718 C23.5901,280.0088 28.4261,279.1228 33.3091,279.3138 C36.7551,279.4108 39.8651,280.0318 42.6441,281.1808 C43.7931,281.6618 44.9881,282.2358 46.2341,282.9038 L46.3781,282.9038 L46.3781,274.5748 C46.3781,272.2768 45.4661,270.0988 43.6491,268.0388 C41.8291,265.9808 39.3401,264.3768 36.1811,263.2288 C31.1051,261.4118 25.8411,261.0748 20.3831,262.2238 C14.9261,263.3728 10.9051,265.5268 8.3201,268.6868 C7.9361,269.1658 7.4081,269.4048 6.7401,269.4048 C6.1651,269.4048 5.6851,269.2368 5.3041,268.9008 C4.9201,268.5658 4.7291,268.1118 4.7291,267.5378 C4.7291,267.0598 4.8731,266.6278 5.1601,266.2448 C7.2651,263.5658 10.0901,261.4818 13.6331,259.9958 C17.1741,258.5128 21.0051,257.7248 25.1221,257.6268 C25.8881,257.6268 26.9901,257.6778 28.4261,257.7718" id="Fill-1" fill="#000020"></path>
            <g id="Group-5" transform="translate(0.000000, 254.675000)">
                <mask id="mask-2" fill="white">
                    <use xlink:href="#path-1"></use>
                </mask>
                <g id="Clip-4"></g>
                <path d="M23.8848,5.0049 C20.5318,5.2129 17.3368,5.9379 14.4058,7.1649 C11.8508,8.2369 9.6928,9.6589 7.9678,11.4049 C10.8378,8.6229 14.8588,6.6679 19.9708,5.5919 C21.2788,5.3169 22.5868,5.1199 23.8848,5.0049 L23.8848,5.0049 Z M48.1508,17.7219 C48.1908,17.9099 48.2258,18.1009 48.2548,18.2909 L48.2548,18.2109 C48.2238,18.0469 48.1898,17.8839 48.1508,17.7219 L48.1508,17.7219 Z M4.5238,43.9739 C4.4078,44.3739 4.3118,44.7759 4.2338,45.1779 C4.3118,44.7759 4.4088,44.3749 4.5238,43.9739 L4.5238,43.9739 Z M47.5238,52.2959 L47.4778,52.3509 C47.2638,52.6059 47.0458,52.8559 46.8218,53.1019 L47.7268,52.1949 L47.5238,52.2959 Z M48.3538,54.5219 L48.3988,54.5219 L48.3988,19.2759 L48.3568,19.2329 C48.3708,19.4539 48.3778,19.6759 48.3778,19.8999 L48.3778,30.2289 L45.6638,30.1919 C46.4428,30.6979 47.1288,31.2279 47.7338,31.7859 L48.3778,32.3799 L48.3778,51.8699 L48.3188,51.8999 L48.3538,54.5219 Z M31.9298,30.4879 C28.4058,30.4879 24.8028,31.2429 21.2228,32.7319 C17.2658,34.3769 14.0108,36.6399 11.5488,39.4549 C8.5308,43.0609 7.4448,46.4829 8.2548,49.8819 C8.4228,50.7169 8.6808,51.4179 9.0608,52.1009 C10.3028,54.5009 12.3958,56.2089 15.4898,57.3789 C17.9878,58.4069 20.6538,58.9169 23.4698,58.9169 L23.4708,58.9169 C25.7908,58.9169 28.2768,58.5709 30.8598,57.8909 C36.5348,56.3949 41.0578,53.7099 44.3058,49.9069 C44.3288,49.8699 44.3528,49.8339 44.3778,49.7979 L44.3778,34.1829 C43.3598,33.3909 42.0288,32.6349 40.4088,31.9299 C38.1948,30.9949 35.7508,30.5169 33.1648,30.5169 C32.6938,30.4969 32.3118,30.4879 31.9298,30.4879 L31.9298,30.4879 Z M38.0458,59.5299 C36.1418,60.4339 34.0848,61.1779 31.8798,61.7579 C31.7568,61.7909 31.6348,61.8219 31.5118,61.8539 C31.6888,61.8179 31.8608,61.7809 32.0278,61.7459 C34.0438,61.2569 36.0648,60.5139 38.0458,59.5299 L38.0458,59.5299 Z M24.2608,66.7079 C20.1078,66.7079 16.1438,65.9849 12.4778,64.5609 C5.9148,62.0209 1.8778,57.6799 0.4828,51.6589 C0.1618,50.2719 -0.0002,48.9119 -0.0002,47.6159 C-0.0002,43.0199 1.8578,38.5659 5.5218,34.3789 C8.7588,30.5349 12.9808,27.5209 18.0458,25.4459 C23.0778,23.3819 28.2388,22.4289 33.3868,22.6409 C37.0408,22.7419 40.4208,23.4219 43.4088,24.6579 C43.7278,24.7909 44.0508,24.9319 44.3778,25.0789 L44.3778,19.8999 C44.3778,18.0929 43.6488,16.3869 42.1488,14.6859 C40.5628,12.8929 38.3238,11.4609 35.4978,10.4339 C30.8038,8.7529 25.8638,8.4389 20.7958,9.5059 C15.8218,10.5529 12.1448,12.4949 9.8678,15.2779 C9.1118,16.2229 8.0258,16.7299 6.7398,16.7299 C5.6798,16.7299 4.7258,16.3819 3.9808,15.7259 C3.1648,15.0139 2.7288,14.0219 2.7288,12.8619 C2.7288,11.9579 3.0158,11.0969 3.5588,10.3709 C5.8968,7.3959 9.0158,5.0879 12.8598,3.4759 C16.6128,1.9039 20.7218,1.0559 25.0748,0.9529 L25.0898,0.9529 C25.9238,0.9529 27.0108,0.9999 28.5568,1.1009 C32.0938,1.3049 35.3458,1.9789 38.2048,3.1029 C41.9628,4.4229 45.1488,6.4039 47.6058,8.9669 C50.1238,11.5919 51.6788,14.5269 52.2258,17.6919 L52.2548,17.8849 C52.3508,18.1889 52.3988,18.5249 52.3988,18.8939 L52.3988,56.1399 C52.4498,56.6069 52.6198,56.8709 53.0078,57.1049 L53.2598,57.2829 C54.0448,57.9379 55.0818,58.2559 56.4308,58.2559 L56.5738,58.2559 C57.5398,58.2559 58.4708,58.6289 59.2658,59.3339 C60.3568,60.3069 60.5848,61.3879 60.5848,62.1229 C60.5848,63.2769 60.1288,64.2909 59.2648,65.0559 C58.4678,65.7609 57.5378,66.1329 56.5738,66.1329 L56.4308,66.1329 C53.3188,66.1329 50.5948,65.2739 48.3368,63.5779 C46.9258,62.4819 45.8948,61.1959 45.2488,59.7329 C44.4898,60.2769 43.6628,60.8589 42.7718,61.4719 L42.6838,61.5289 C39.5508,63.4499 36.2648,64.8349 32.9178,65.6459 C31.4928,65.9509 29.8088,66.2489 27.8608,66.5409 L27.7268,66.5569 C26.4978,66.6569 25.3318,66.7079 24.2608,66.7079 L24.2608,66.7079 Z" id="Fill-3" fill="#000020" mask="url(#mask-2)"></path>
            </g>
            <path d="M84.5796,266.174 C80.9396,268.135 77.9736,270.937 75.6756,274.574 C71.7486,280.415 70.4336,286.855 71.7256,293.889 C73.0186,300.929 76.4406,306.457 81.9946,310.478 C86.1096,313.35 90.6586,314.857 95.6376,315.003 C100.6146,315.144 105.1636,313.735 109.2816,310.765 L109.2816,267.537 C105.2606,264.761 100.8556,263.372 96.0686,263.372 C92.0476,263.278 88.2166,264.21 84.5796,266.174 L84.5796,266.174 Z M111.3906,229.969 C111.9656,229.969 112.4756,229.963 112.8596,230.344 C113.2406,230.728 113.4226,232.415 113.4226,233.083 L113.3026,318.521 C113.3026,319.095 113.1096,319.599 112.7286,320.028 C112.3446,320.461 111.8666,320.675 111.2916,320.675 C110.7176,320.675 110.2376,320.461 109.8556,320.028 C109.4716,319.599 109.2816,319.095 109.2816,318.521 L109.2816,315.792 C104.6856,318.283 99.7066,319.382 94.3456,319.095 C88.9816,318.808 84.0996,317.084 79.6966,313.925 C73.1846,309.236 69.2126,302.82 67.7766,294.68 C67.3926,292.67 67.2026,290.756 67.2026,288.936 C67.2026,283.001 68.9256,277.401 72.3726,272.133 C76.8716,265.336 82.9996,261.171 90.7546,259.638 C97.2646,258.299 103.4406,259.257 109.2816,262.511 L109.2816,233.083 C109.2816,231.935 109.4016,230.445 110.3596,230.156 L111.3906,229.969 Z" id="Fill-6" fill="#000020"></path>
            <g id="Group-10" transform="translate(65.000000, 227.675000)">
                <mask id="mask-4" fill="white">
                    <use xlink:href="#path-3"></use>
                </mask>
                <g id="Clip-9"></g>
                <path d="M30.5181,37.6904 C27.0461,37.6904 23.6851,38.5544 20.5301,40.2584 C17.2161,42.0444 14.4701,44.6374 12.3661,47.9674 C8.6791,53.4544 7.4871,59.2894 8.6931,65.8524 C9.9001,72.4264 12.9991,77.4414 18.1671,81.1824 C21.9081,83.7934 26.1321,85.1944 30.6961,85.3294 C34.8961,85.4464 38.7371,84.3714 42.2811,82.0404 L42.2811,40.9394 C38.8481,38.7874 35.0801,37.6974 31.0681,37.6974 C30.8531,37.6924 30.6851,37.6904 30.5181,37.6904 L30.5181,37.6904 Z M31.3121,89.3374 L31.3121,89.3374 C31.0691,89.3374 30.8251,89.3344 30.5801,89.3274 C25.2231,89.1694 20.2681,87.5264 15.8501,84.4424 C9.8631,80.1094 6.1421,74.1044 4.7581,66.5754 C3.3741,59.0394 4.8071,52.0444 9.0161,45.7834 C11.4601,41.9124 14.7051,38.8524 18.6311,36.7384 C22.5541,34.6204 26.7671,33.5994 31.1151,33.6984 L31.1181,33.6984 C36.2491,33.6984 41.0751,35.2174 45.4171,38.2164 L46.2811,38.8124 L46.2811,84.1134 L45.4511,84.7114 C41.1951,87.7814 36.4381,89.3374 31.3121,89.3374 L31.3121,89.3374 Z M46.2811,84.7574 L46.2811,90.8454 C46.2811,90.8844 46.2841,90.9124 46.2911,90.9344 C46.3001,90.9094 46.3021,90.8824 46.3021,90.8454 L46.4221,5.4054 C46.4221,5.1454 46.3861,4.7614 46.3361,4.4204 C46.3061,4.6304 46.2811,4.9464 46.2811,5.4084 L46.2811,38.2394 L43.3081,36.5834 C37.9121,33.5774 32.1651,32.6854 26.1571,33.9214 C18.8651,35.3634 13.2711,39.1694 9.0401,45.5614 C5.8321,50.4644 4.2021,55.7494 4.2021,61.2604 C4.2021,62.9514 4.3831,64.7574 4.7411,66.6294 C6.1011,74.3364 9.7381,80.2144 15.8651,84.6274 C19.9301,87.5444 24.5021,89.1584 29.4521,89.4224 C34.4191,89.6834 39.0821,88.6604 43.3281,86.3594 L46.2811,84.7574 Z M46.2911,95.0004 C45.1341,95.0004 44.1181,94.5424 43.3541,93.6744 C42.7491,92.9994 42.3871,92.1704 42.3011,91.2674 C38.2111,92.9414 33.8381,93.6604 29.2381,93.4174 C23.5141,93.1104 18.2291,91.2464 13.5301,87.8754 C6.6101,82.8914 2.3301,75.9874 0.8071,67.3524 C0.4071,65.2614 0.2021,63.2024 0.2021,61.2604 C0.2021,54.9584 2.0521,48.9364 5.6991,43.3634 C10.4881,36.1274 17.1031,31.6344 25.3671,30.0014 C31.1791,28.8034 36.9011,29.3444 42.2811,31.6314 L42.2811,5.4084 C42.2811,4.3964 42.2811,1.3184 44.7831,0.5664 L45.0011,0.5134 L46.3901,0.2944 C47.1391,0.2944 48.3051,0.2944 49.2681,1.2494 C50.3671,2.3564 50.4221,4.9084 50.4221,5.4084 L50.3021,90.8484 C50.3021,91.9064 49.9291,92.8864 49.2241,93.6804 C48.4591,94.5434 47.4451,95.0004 46.2911,95.0004 L46.2911,95.0004 Z" id="Fill-8" fill="#000020" mask="url(#mask-4)"></path>
            </g>
            <path d="M131.6851,271.5588 C128.2381,275.7728 126.3221,280.6068 125.9401,286.0638 L177.7861,286.0638 C177.2101,278.5948 174.0521,272.5168 168.3071,267.8248 C163.4241,263.8028 157.8701,261.8418 151.6481,261.9368 C143.5081,261.9368 136.8551,265.1458 131.6851,271.5588 M170.8921,264.6638 C174.2421,267.3468 176.8731,270.6228 178.7911,274.5028 C180.7041,278.3778 181.7571,282.5228 181.9521,286.9248 C181.9521,287.1188 181.8991,287.3098 181.8041,287.4988 L181.8041,287.7878 C181.8991,287.8828 181.9521,287.9808 181.9521,288.0748 C181.9521,288.6488 181.7571,289.1288 181.3761,289.5098 C180.9911,289.8948 180.5161,290.0838 179.9411,290.0838 L125.9401,290.0838 C126.5151,297.6498 129.6741,303.8248 135.4191,308.6118 C141.0671,313.2058 147.4581,315.1448 154.5921,314.4278 C161.7231,313.7078 167.5391,310.5278 172.0411,304.8768 C172.4221,304.3998 172.9501,304.1598 173.6211,304.1598 C174.1951,304.1598 174.6731,304.3528 175.0571,304.7338 C175.4381,305.1178 175.6311,305.5948 175.6311,306.1688 C175.6311,306.5528 175.4881,306.9378 175.2001,307.3188 C169.9341,313.8308 163.1841,317.4678 154.9511,318.2338 C153.8021,318.3298 152.7001,318.3768 151.6481,318.3768 C144.7541,318.3768 138.5291,316.1278 132.9781,311.6268 C129.4341,308.7538 126.7301,305.2848 124.8631,301.2158 C122.9961,297.1458 122.0131,292.9108 121.9191,288.5048 L121.9191,287.4988 C122.0131,280.5118 124.2171,274.3358 128.5251,268.9738 C133.6961,262.5608 140.4461,258.9198 148.7751,258.0588 C149.4441,258.0588 150.4021,258.0108 151.6481,257.9148 C159.0191,257.9148 165.4351,260.1648 170.8921,264.6638" id="Fill-11" fill="#000020"></path>
            <path d="M152.0772,259.9338 C152.5652,259.9338 153.0512,259.9458 153.5322,259.9698 C152.9362,259.9348 152.3322,259.9158 151.7232,259.9148 C151.6212,259.9228 151.5222,259.9308 151.4252,259.9378 C151.4992,259.9368 151.5732,259.9368 151.6482,259.9368 L152.0772,259.9338 Z M139.9732,262.4068 C136.1862,264.1228 132.9132,266.7188 130.0822,270.2288 C127.8042,273.0658 126.1502,276.1728 125.1322,279.5238 C126.1702,276.1858 127.8422,273.0978 130.1372,270.2918 C132.9772,266.7698 136.2652,264.1358 139.9732,262.4068 L139.9732,262.4068 Z M128.1772,284.0638 L175.5442,284.0638 C174.6242,278.1058 171.8292,273.2838 167.0422,269.3728 C162.5952,265.7108 157.7022,263.9338 152.0772,263.9338 L151.6782,263.9368 C144.0782,263.9368 138.0572,266.8398 133.2422,272.8138 C130.5272,276.1328 128.8302,279.9068 128.1772,284.0638 L128.1772,284.0638 Z M159.4712,260.9258 C163.1002,261.9408 166.4812,263.7298 169.5782,266.2808 C175.7292,271.3038 179.1632,277.9108 179.7802,285.9108 L179.8582,286.9198 L179.9432,286.7488 C179.7432,282.7918 178.7512,278.9428 176.9972,275.3878 C175.2212,271.7938 172.7462,268.7108 169.6422,266.2258 C166.5872,263.7068 163.1862,261.9378 159.4712,260.9258 L159.4712,260.9258 Z M123.9192,288.0838 L179.8042,288.0638 L123.9192,288.0838 Z M151.6482,320.3768 C144.3132,320.3768 137.6082,317.9558 131.7182,313.1808 C127.9512,310.1258 125.0332,306.3808 123.0452,302.0498 C121.0712,297.7458 120.0192,293.2028 119.9192,288.5478 L119.9192,287.4988 C120.0192,280.0628 122.3902,273.4168 126.9662,267.7208 C132.4642,260.9028 139.7322,256.9838 148.5702,256.0698 L148.7752,256.0588 C149.3902,256.0588 150.3062,256.0128 151.4942,255.9208 L151.6482,255.9148 C159.4622,255.9148 166.3652,258.3398 172.1642,263.1218 C175.7062,265.9568 178.5462,269.4948 180.5842,273.6168 C182.6122,277.7258 183.7442,282.1728 183.9502,286.8368 C183.9512,287.0848 183.9292,287.3178 183.8862,287.5378 C183.9292,287.7128 183.9522,287.8928 183.9522,288.0748 C183.9522,289.1788 183.5502,290.1638 182.7902,290.9238 C182.0292,291.6838 181.0442,292.0838 179.9412,292.0838 L128.1772,292.0838 C129.0932,298.1508 131.8942,303.0718 136.6992,307.0758 C141.9462,311.3428 147.7472,313.1088 154.3922,312.4378 C161.0272,311.7688 166.2882,308.8878 170.4772,303.6308 C171.2352,302.6818 172.3512,302.1598 173.6212,302.1598 C174.7212,302.1598 175.7042,302.5588 176.4662,303.3138 C177.2322,304.0858 177.6312,305.0698 177.6312,306.1688 C177.6312,306.9868 177.3422,307.8018 176.7942,308.5248 C171.1632,315.4918 163.8902,319.4118 155.1362,320.2248 C153.9312,320.3268 152.7642,320.3768 151.6482,320.3768 L151.6482,320.3768 Z" id="Fill-13" fill="#000020"></path>
            <path d="M192.5786,259.2072 C193.1526,259.2072 193.6306,259.4002 194.0156,259.7812 C194.3956,260.1652 194.5906,260.6442 194.5906,261.2192 L194.5906,271.4142 C196.7906,267.7772 199.6406,264.8792 203.1336,262.7282 C206.6306,260.5702 210.4806,259.4472 214.6956,259.3522 L215.4136,259.3522 C221.4456,259.3522 226.7596,261.5552 231.3546,265.9572 C236.1416,270.6492 238.8696,276.4412 239.5406,283.3342 L239.5406,283.4782 C239.5406,283.5752 239.5646,283.6952 239.6116,283.8362 C239.6606,283.9822 239.6846,284.1032 239.6846,284.1962 C239.6846,284.4832 239.6356,284.7252 239.5406,284.9142 L239.5406,317.8032 C239.5406,318.3772 239.3486,318.8542 238.9676,319.2382 C238.5826,319.6192 238.1046,319.8132 237.5306,319.8132 C236.9556,319.8132 236.4756,319.6192 236.0946,319.2382 C235.7106,318.8542 235.5196,318.3772 235.5196,317.8032 L235.5196,283.3342 C234.8496,277.4962 232.5276,272.6602 228.5566,268.8292 C224.5816,265.0012 219.9596,263.1822 214.6956,263.3722 C209.4296,263.4692 204.8806,265.5032 201.0526,269.4752 C197.2226,273.4482 195.0666,278.3572 194.5906,284.1962 L194.5906,317.8032 C194.5906,318.3772 194.3956,318.8542 194.0156,319.2382 C193.6306,319.6192 193.1996,319.8132 192.7236,319.8132 C192.1476,319.8132 191.6436,319.6192 191.2166,319.2382 C190.7826,318.8542 190.5676,318.3772 190.5676,317.8032 L190.5676,261.0742 C190.5676,260.0222 191.0936,259.4002 192.1476,259.2072 L192.5786,259.2072 Z" id="Fill-15" fill="#000020"></path>
            <path d="M215.44,261.3586 C220.91,261.3586 225.79,263.3876 229.944,267.3886 C234.191,271.4866 236.726,276.7006 237.482,282.8906 C236.754,276.7116 234.288,271.6336 229.955,267.3846 C225.722,263.3306 220.96,261.3516 215.414,261.3516 L214.696,261.3516 C213.768,261.3736 212.855,261.4516 211.958,261.5856 C212.839,261.4606 213.74,261.3896 214.659,261.3726 C214.897,261.3636 215.169,261.3586 215.44,261.3586 L215.44,261.3586 Z M192.568,261.2176 L192.568,314.8806 L192.597,284.0336 C192.899,280.3396 193.838,276.9626 195.404,273.9336 L192.59,278.5846 L192.568,261.2176 Z M237.52,283.2346 L237.531,317.8136 C237.568,317.8136 237.584,317.8096 237.584,317.8096 L237.541,284.4426 L237.644,284.2346 C237.575,283.9696 237.541,283.7216 237.541,283.4786 L237.541,283.4326 C237.534,283.3666 237.527,283.2996 237.52,283.2346 L237.52,283.2346 Z M237.531,321.8136 C236.427,321.8136 235.442,321.4136 234.682,320.6546 C233.921,319.8936 233.52,318.9086 233.52,317.8026 L233.52,283.4506 C232.882,278.0886 230.803,273.7756 227.168,270.2686 C223.567,266.7996 219.514,265.1796 214.768,265.3716 C209.973,265.4596 205.969,267.2546 202.493,270.8626 C198.976,274.5106 197.044,278.9006 196.59,284.2796 L196.59,317.8026 C196.59,318.9016 196.191,319.8856 195.435,320.6476 C193.839,322.2246 191.432,322.1076 189.886,320.7326 C189.025,319.9696 188.568,318.9566 188.568,317.8026 L188.568,261.0746 C188.568,259.0436 189.771,257.6096 191.788,257.2406 L192.148,257.2076 L192.579,257.2076 C193.677,257.2076 194.661,257.6056 195.422,258.3596 C196.191,259.1336 196.59,260.1186 196.59,261.2186 L196.59,265.4896 C198.222,263.7656 200.058,262.2726 202.085,261.0246 C205.867,258.6916 210.095,257.4556 214.651,257.3526 L215.414,257.3516 C221.949,257.3516 227.778,259.7606 232.739,264.5126 C237.864,269.5386 240.817,275.7996 241.531,283.1406 L241.541,283.3016 C241.638,283.6206 241.685,283.9136 241.685,284.1966 C241.685,284.5776 241.636,284.9346 241.541,285.2666 L241.541,317.8026 C241.541,318.9036 241.142,319.8866 240.387,320.6476 C239.612,321.4146 238.628,321.8136 237.531,321.8136 L237.531,321.8136 Z" id="Fill-17" fill="#000020"></path>
            <path d="M256.0571,230.341 C256.6301,230.341 257.1331,230.533 257.5661,230.915 C257.9941,231.299 258.2101,231.777 258.2101,232.352 L258.0681,232.494 L258.0681,258.777 L273.0031,258.777 C273.5781,258.777 274.0561,258.97 274.4401,259.351 C274.8211,259.735 275.0141,260.166 275.0141,260.644 C275.0141,261.218 274.8211,261.72 274.4401,262.153 C274.0561,262.581 273.5781,262.798 273.0031,262.798 L258.0681,262.798 L258.0681,311.484 C258.1611,311.58 258.2101,311.651 258.2101,311.697 C258.2101,311.747 258.1611,311.82 258.0681,311.915 C258.1611,312.776 258.7361,313.544 259.7901,314.212 C261.0341,314.98 262.6141,315.361 264.5301,315.361 C266.3481,315.361 267.9271,314.93 269.2701,314.069 C270.4181,313.304 270.9931,312.539 270.9931,311.771 L270.9931,311.627 C270.9931,310.672 271.4241,310.048 272.2861,309.76 C272.4761,309.666 272.7161,309.616 273.0031,309.616 C273.5781,309.616 274.0561,309.81 274.4401,310.191 C274.8211,310.574 275.0141,311.053 275.0141,311.627 L275.0141,311.771 C275.0141,313.975 273.8651,315.842 271.5671,317.372 C269.5571,318.711 267.2081,319.383 264.5301,319.383 C261.8491,319.383 259.5511,318.758 257.6371,317.516 C255.8171,316.366 254.7151,314.786 254.3331,312.776 C254.2371,312.488 254.1401,312.251 254.0451,312.058 L254.0451,262.798 L250.3121,262.798 C249.7381,262.798 249.2571,262.607 248.8751,262.224 C248.4921,261.842 248.3021,261.362 248.3021,260.786 C248.3021,260.31 248.4691,259.855 248.8031,259.422 C249.1401,258.993 249.5441,258.777 250.0251,258.777 L254.0451,258.777 L254.0451,232.352 C254.0451,231.396 254.5241,230.772 255.4831,230.485 C255.5771,230.391 255.6731,230.341 255.7701,230.341 L256.0571,230.341 Z" id="Fill-19" fill="#000020"></path>
            <path d="M250.3052,260.7766 C250.3032,260.7806 250.3022,260.7846 250.3022,260.7866 L256.0452,260.7976 L256.0452,311.1156 L256.0682,311.0926 L256.0682,260.7976 L272.5812,260.7976 L256.0682,260.7766 L256.0682,232.3966 L256.0562,232.4006 C256.0542,232.4016 256.0522,232.4016 256.0512,232.4026 L256.0452,260.7766 L250.3052,260.7766 Z M261.6762,317.0716 C262.5612,317.2796 263.5142,317.3826 264.5302,317.3826 C266.8262,317.3826 268.7662,316.8356 270.4582,315.7086 C272.7492,314.1816 273.0142,312.7296 273.0142,311.7706 L273.0142,311.6276 C273.0132,311.6276 273.0122,311.6266 273.0112,311.6266 L272.9922,311.6316 L272.9922,311.7706 C272.9922,313.2456 272.1132,314.5786 270.3782,315.7336 C268.6862,316.8196 266.7282,317.3606 264.5302,317.3606 C263.5092,317.3606 262.5562,317.2636 261.6762,317.0716 L261.6762,317.0716 Z M264.5302,321.3826 C261.4722,321.3826 258.7872,320.6466 256.5482,319.1936 C254.3142,317.7836 252.9112,315.7966 252.3992,313.2996 C252.3482,313.1596 252.2992,313.0396 252.2492,312.9376 L252.0452,312.5216 L252.0452,264.7976 L250.3122,264.7976 C249.2032,264.7976 248.2172,264.3966 247.4592,263.6356 C246.7042,262.8846 246.3022,261.8976 246.3022,260.7866 C246.3022,259.8726 246.6192,258.9776 247.2202,258.1996 C247.9452,257.2776 248.9372,256.7766 250.0252,256.7766 L252.0452,256.7766 L252.0452,232.3516 C252.0452,230.6476 252.9712,229.3056 254.5432,228.6946 C254.9172,228.4636 255.3382,228.3406 255.7702,228.3406 L256.0572,228.3406 C257.1142,228.3406 258.0932,228.7136 258.8892,229.4166 C259.7582,230.1946 260.2102,231.2066 260.2102,232.3516 L260.2102,233.1796 L260.0682,233.3226 L260.0682,256.7766 L273.0032,256.7766 C274.1042,256.7766 275.0872,257.1756 275.8492,257.9306 C276.6152,258.7036 277.0142,259.6376 277.0142,260.6436 C277.0142,261.6986 276.6432,262.6766 275.9412,263.4736 C275.1612,264.3446 274.1502,264.7976 273.0032,264.7976 L260.0682,264.7976 L260.0682,310.9416 C260.1622,311.1846 260.2102,311.4366 260.2102,311.6976 C260.2102,311.7886 260.2042,311.8796 260.1932,311.9676 C260.3172,312.1226 260.5302,312.3126 260.8612,312.5226 C261.7552,313.0746 262.9952,313.3606 264.5302,313.3606 C265.9692,313.3606 267.1662,313.0416 268.1902,312.3846 C268.7412,312.0186 268.9352,311.7666 268.9922,311.6776 L268.9922,311.6276 C268.9922,309.8406 269.9182,308.4906 271.5382,307.9026 C271.9762,307.7126 272.4682,307.6166 273.0032,307.6166 C274.1042,307.6166 275.0872,308.0156 275.8492,308.7706 C276.6152,309.5436 277.0142,310.5266 277.0142,311.6276 L277.0142,311.7706 C277.0142,313.7676 276.2612,316.6486 272.6752,319.0376 C270.3382,320.5936 267.5982,321.3826 264.5302,321.3826 L264.5302,321.3826 Z" id="Fill-21" fill="#000020"></path>
            <path d="M285.6421,258.3459 C286.2151,258.3459 286.6941,258.5389 287.0781,258.9199 C287.4581,259.3039 287.6531,259.7819 287.6531,260.3569 L287.6531,270.6969 C289.8541,267.0599 292.7031,264.1399 296.1961,261.9359 C299.6931,259.7349 303.4961,258.5859 307.6151,258.4899 L308.3321,258.4899 C308.9081,258.4899 309.3851,258.6829 309.7691,259.0639 C310.1511,259.4479 310.3431,259.8789 310.3431,260.3569 C310.3431,260.9309 310.1511,261.4319 309.7691,261.8659 C309.3851,262.2939 308.9081,262.5109 308.3321,262.5109 L307.7581,262.5109 C302.4921,262.6069 297.9431,264.6889 294.1151,268.7589 C290.2851,272.8269 288.1291,277.7829 287.6531,283.6219 L287.6531,317.8029 C287.6531,318.2829 287.4581,318.7379 287.0781,319.1659 C286.6941,319.5989 286.2151,319.8129 285.6421,319.8129 C285.0681,319.8129 284.5861,319.5989 284.2051,319.1659 C283.8221,318.7379 283.6301,318.2829 283.6301,317.8029 L283.6301,260.2129 C283.6301,259.1599 284.1561,258.5389 285.2101,258.3459 L285.6421,258.3459 Z" id="Fill-23" fill="#000020"></path>
            <path d="M307.6147,260.4895 C306.2847,260.5205 304.9777,260.6785 303.7027,260.9615 C304.9997,260.6865 306.3407,260.5365 307.7217,260.5105 L308.3327,260.5105 L307.6147,260.4895 Z M285.6307,317.7605 C285.6357,317.7615 285.6427,317.7705 285.6557,317.7865 C285.6547,317.7505 285.6667,317.7235 285.6667,317.7235 L285.6527,283.5415 L285.6597,283.4595 C285.9877,279.4315 287.0757,275.7625 288.9047,272.4905 L285.6527,277.8635 L285.6307,260.3555 L285.6307,317.7605 Z M285.6417,321.8125 C284.4827,321.8125 283.4677,321.3545 282.7047,320.4875 C282.0057,319.7075 281.6307,318.7745 281.6307,317.8025 L281.6307,260.2135 C281.6307,258.1815 282.8337,256.7485 284.8497,256.3795 L285.2107,256.3455 L285.6417,256.3455 C286.7417,256.3455 287.7247,256.7455 288.4867,257.5005 C289.2537,258.2735 289.6527,259.2575 289.6527,260.3565 L289.6527,264.7585 C291.2787,263.0275 293.1087,261.5185 295.1287,260.2445 C298.9207,257.8575 303.1047,256.5945 307.5677,256.4905 L308.3327,256.4895 C309.4327,256.4895 310.4167,256.8885 311.1777,257.6435 C311.9437,258.4135 312.3437,259.3485 312.3437,260.3565 C312.3437,261.4115 311.9717,262.3895 311.2697,263.1875 C310.4907,264.0575 309.4787,264.5105 308.3327,264.5105 L307.7587,264.5105 C303.0447,264.5965 299.0467,266.4345 295.5717,270.1295 C292.0937,273.8235 290.1017,278.3905 289.6527,283.7055 L289.6527,317.8025 C289.6527,318.7685 289.2797,319.6995 288.5727,320.4945 C287.8077,321.3565 286.7947,321.8125 285.6417,321.8125 L285.6417,321.8125 Z" id="Fill-25" fill="#000020"></path>
            <path d="M322.8384,289.0793 C322.8384,296.3563 325.4004,302.5563 330.5234,307.6773 C335.6434,312.7993 341.8184,315.3613 349.0474,315.3613 C356.2764,315.3613 362.4264,312.7993 367.5024,307.6773 C372.5754,302.5563 375.1134,296.3563 375.1134,289.0793 C375.1134,281.8053 372.5754,275.6033 367.5024,270.4823 C362.4264,265.3593 356.2764,262.7973 349.0474,262.7973 C341.8184,262.7973 335.6434,265.3593 330.5234,270.4823 C325.4004,275.6033 322.8384,281.8053 322.8384,289.0793 M378.9914,289.0793 C378.9914,297.5053 376.0694,304.6633 370.2314,310.5483 C364.3904,316.4393 357.3534,319.3823 349.1194,319.3823 C340.7904,319.3823 333.6824,316.4393 327.7914,310.5483 C321.9054,304.6633 318.9604,297.5053 318.9604,289.0793 C318.9604,280.7493 321.9054,273.6183 327.7914,267.6813 C333.6824,261.7453 340.7904,258.7763 349.1194,258.7763 C357.3534,258.7763 364.3904,261.7453 370.2314,267.6813 C376.0694,273.6183 378.9914,280.7493 378.9914,289.0793" id="Fill-27" fill="#000020"></path>
            <path d="M349.0474,260.7971 C353.8014,260.7971 358.1554,261.8461 362.0684,263.9261 C358.1934,261.8151 353.9054,260.7761 349.1194,260.7761 C344.7514,260.7761 340.7974,261.6191 337.1924,263.3321 C340.8064,261.6471 344.7694,260.7971 349.0474,260.7971 M349.0474,264.7971 C342.3094,264.7971 336.7124,267.1191 331.9384,271.8971 C327.1604,276.6721 324.8384,282.2921 324.8384,289.0791 C324.8384,295.8671 327.1604,301.4871 331.9374,306.2631 C336.7124,311.0391 342.3094,313.3611 349.0474,313.3611 C355.7794,313.3611 361.3524,311.0411 366.0814,306.2691 C370.8144,301.4921 373.1134,295.8701 373.1134,289.0791 C373.1134,282.2891 370.8144,276.6671 366.0814,271.8901 C361.3524,267.1171 355.7804,264.7971 349.0474,264.7971 M334.0764,313.1121 C338.4884,315.9781 343.4564,317.3821 349.1194,317.3821 C354.9504,317.3821 360.0404,315.8571 364.5444,312.7391 C360.0204,315.8101 354.8284,317.3611 349.0474,317.3611 C343.5034,317.3611 338.4904,315.9361 334.0764,313.1121 M349.1194,321.3821 C340.2784,321.3821 332.6264,318.2131 326.3774,311.9621 C320.1284,305.7151 316.9604,298.0161 316.9604,289.0791 C316.9604,280.2451 320.1264,272.5721 326.3714,266.2731 C332.6244,259.9711 340.2784,256.7761 349.1194,256.7761 C357.8694,256.7761 365.4524,259.9731 371.6564,266.2781 C377.8514,272.5771 380.9914,280.2481 380.9914,289.0791 C380.9914,298.0131 377.8494,305.7101 371.6514,311.9561 C365.4504,318.2111 357.8694,321.3821 349.1194,321.3821" id="Fill-29" fill="#000020"></path>
            <path d="M154.5454,89.4074 C146.2034,89.4074 139.4604,94.1364 136.0444,102.3824 C131.9834,112.1844 133.1724,127.3624 144.9824,139.1724 C145.0564,139.2464 145.1284,139.3234 145.1964,139.4034 C160.3914,157.2084 175.6174,171.2934 190.4944,181.3094 C205.3744,171.2914 220.6034,157.2054 235.7964,139.4034 C235.8644,139.3234 235.9354,139.2464 236.0094,139.1724 C247.9974,127.1844 249.2394,111.8634 245.1524,101.9974 C241.8384,93.9964 235.3104,89.4074 227.2424,89.4074 C220.4374,89.4074 209.3324,92.6014 194.8024,107.6384 C194.1574,109.0744 192.7304,110.0004 191.1534,110.0004 L190.8384,110.0004 C189.2614,110.0004 187.8334,109.0744 187.1894,107.6394 C172.6534,92.5994 161.4424,89.4074 154.5454,89.4074 L154.5454,89.4074 Z M197.8554,185.9524 C213.4634,195.1314 228.6244,199.7784 242.9914,199.7784 L242.9974,199.7784 C266.2264,199.7764 281.9054,187.8614 290.9674,177.8664 C302.0834,165.6054 309.2594,149.4894 310.1614,134.7564 C311.6144,111.0134 301.0434,74.2594 274.1494,45.6684 C258.4154,28.9404 231.1294,9.0004 190.4954,9.0004 C149.8624,9.0004 122.5774,28.9404 106.8424,45.6684 C79.9484,74.2594 69.3774,111.0134 70.8314,134.7564 C71.7324,149.4914 78.9074,165.6084 90.0224,177.8694 C99.0834,187.8644 114.7614,199.7784 137.9944,199.7784 C152.3644,199.7784 167.5254,195.1314 183.1344,185.9524 C168.6174,175.7174 153.8684,161.8724 139.2124,144.7154 C124.8974,130.3094 123.5874,111.5494 128.6534,99.3204 C133.2994,88.1034 142.9794,81.4074 154.5454,81.4074 C162.6584,81.4074 175.3914,84.7444 190.9954,100.1154 C206.5874,84.7444 219.2174,81.4074 227.2424,81.4074 C238.5384,81.4074 247.9974,87.9604 252.5444,98.9354 C257.6354,111.2274 256.2714,130.1324 241.7804,144.7154 C227.1244,161.8714 212.3764,175.7154 197.8554,185.9524 L197.8554,185.9524 Z M242.9914,207.7784 C226.1464,207.7784 208.4964,202.0844 190.4944,190.8454 C172.4934,202.0834 154.8424,207.7784 137.9944,207.7784 C91.8584,207.7784 64.7074,165.6544 62.8454,135.2454 C60.9724,104.6494 76.3114,66.4494 101.0154,40.1864 C117.8304,22.3104 147.0044,1.0004 190.4954,1.0004 C233.9874,1.0004 263.1614,22.3104 279.9774,40.1864 C304.6814,66.4494 320.0194,104.6494 318.1464,135.2454 C316.2844,165.6514 289.1344,207.7744 242.9974,207.7784 L242.9914,207.7784 Z" id="Fill-31" fill="#000020"></path>
            <path d="M154.5454,90.4074 C146.6284,90.4074 140.2214,94.9114 136.9684,102.7644 C133.0354,112.2604 134.2064,126.9814 145.6894,138.4654 C145.7834,138.5594 145.8724,138.6554 145.9574,138.7544 C160.8924,156.2554 175.8734,170.1624 190.4944,180.1024 C205.1184,170.1614 220.1014,156.2534 235.0344,138.7544 C235.1204,138.6554 235.2084,138.5594 235.3004,138.4674 C246.9644,126.8034 248.1894,111.9394 244.2294,102.3804 C241.0774,94.7704 234.8864,90.4074 227.2424,90.4074 C220.6914,90.4074 209.8964,93.5014 195.6364,108.2164 C194.7974,109.9134 193.0584,111.0004 191.1534,111.0004 L190.8384,111.0004 C188.9354,111.0004 187.1944,109.9134 186.3564,108.2164 C172.0914,93.5024 161.1874,90.4074 154.5454,90.4074 L154.5454,90.4074 Z M190.4944,182.5154 L189.9364,182.1394 C174.9874,172.0734 159.6784,157.9144 144.4354,140.0534 C144.3834,139.9924 144.3294,139.9334 144.2734,139.8764 C132.1394,127.7434 130.9324,112.1094 135.1204,101.9994 C138.6984,93.3614 145.7784,88.4074 154.5454,88.4074 C161.5914,88.4074 173.1004,91.6234 187.9084,106.9444 L188.0294,107.0704 L188.1014,107.2294 C188.5854,108.3054 189.6594,109.0004 190.8384,109.0004 L191.1534,109.0004 C192.3334,109.0004 193.4074,108.3044 193.8904,107.2294 L193.9624,107.0694 L194.0834,106.9444 C208.8884,91.6234 220.2864,88.4074 227.2424,88.4074 C235.7344,88.4074 242.5994,93.2204 246.0764,101.6144 C250.2904,111.7884 249.0304,127.5654 236.7164,139.8794 C236.6624,139.9334 236.6084,139.9924 236.5564,140.0534 C221.3144,157.9124 206.0054,172.0724 191.0534,182.1394 L190.4944,182.5154 Z M199.6994,185.8664 C214.6754,194.4354 229.2334,198.7784 242.9914,198.7784 C265.8604,198.7764 281.3004,187.0404 290.2264,177.1944 C301.1944,165.0964 308.2744,149.2094 309.1634,134.6944 C310.6034,111.1674 300.1104,74.7264 273.4214,46.3534 C257.8214,29.7694 230.7734,10.0004 190.4954,10.0004 C150.2194,10.0004 123.1704,29.7694 107.5704,46.3534 C80.8814,74.7264 70.3884,111.1674 71.8294,134.6944 C72.7174,149.2114 79.7954,165.0994 90.7624,177.1974 C99.6884,187.0434 115.1284,198.7784 137.9944,198.7784 C151.7554,198.7784 166.3144,194.4354 181.2894,185.8664 C167.1204,175.6804 152.7144,162.0614 138.4514,145.3644 C123.8624,130.6864 122.5434,111.4584 127.7304,98.9374 C132.5364,87.3344 142.5604,80.4074 154.5454,80.4074 C162.5764,80.4074 175.3744,83.6054 190.9954,98.7174 C206.6014,83.6054 219.2964,80.4074 227.2424,80.4074 C238.9574,80.4074 248.7614,87.1904 253.4684,98.5534 C258.6804,111.1364 257.3064,130.5094 242.4894,145.4204 C228.2764,162.0624 213.8724,175.6794 199.6994,185.8664 L199.6994,185.8664 Z M242.9974,200.7784 C228.4624,200.7784 213.1054,196.0804 197.3484,186.8144 L196.0114,186.0284 L197.2784,185.1354 C211.7234,174.9524 226.4404,161.1344 241.0204,144.0654 C255.2394,129.7524 256.5784,111.2904 251.6204,99.3184 C247.2334,88.7294 238.1204,82.4074 227.2424,82.4074 C219.5514,82.4074 207.1414,85.6024 191.6974,100.8274 L190.9954,101.5184 L190.2944,100.8274 C174.8374,85.6024 162.3224,82.4074 154.5454,82.4074 C143.3974,82.4074 134.0634,88.8734 129.5774,99.7034 C124.6444,111.6114 125.9294,129.9294 139.9214,144.0104 C154.5534,161.1354 169.2694,174.9534 183.7104,185.1354 L184.9784,186.0284 L183.6414,186.8144 C167.8834,196.0804 152.5254,200.7784 137.9944,200.7784 C114.3954,200.7784 98.4784,188.6854 89.2814,178.5414 C78.0184,166.1174 70.7484,149.7714 69.8334,134.8164 C68.3664,110.8594 79.0154,73.7914 106.1134,44.9834 C121.9834,28.1114 149.5054,8.0004 190.4954,8.0004 C231.4864,8.0004 259.0094,28.1114 274.8784,44.9834 C301.9764,73.7914 312.6264,110.8594 311.1594,134.8164 C310.2434,149.7694 302.9724,166.1144 291.7084,178.5384 C282.5114,188.6824 266.5934,200.7764 242.9974,200.7784 L242.9974,200.7784 Z M190.4944,189.6664 L191.0244,189.9964 C208.8594,201.1324 226.3444,206.7784 242.9914,206.7784 L242.9974,207.7784 L242.9974,206.7784 C288.5204,206.7744 315.3104,165.1964 317.1484,135.1834 C319.0054,104.8464 303.7744,66.9454 279.2484,40.8724 C262.5674,23.1384 233.6304,2.0004 190.4954,2.0004 C147.3624,2.0004 118.4234,23.1384 101.7434,40.8724 C77.2174,66.9454 61.9864,104.8464 63.8434,135.1834 C65.6814,165.1994 92.4724,206.7784 137.9944,206.7784 C154.6434,206.7784 172.1284,201.1324 189.9644,189.9964 L190.4944,189.6664 Z M242.9974,208.7784 L242.9914,208.7784 C226.1294,208.7784 208.4704,203.1414 190.4944,192.0214 C172.5184,203.1414 154.8584,208.7784 137.9944,208.7784 C91.2454,208.7784 63.7334,166.1084 61.8474,135.3054 C59.9584,104.4534 75.4064,65.9524 100.2864,39.5024 C117.2374,21.4814 146.6474,0.0004 190.4954,0.0004 C234.3454,0.0004 263.7554,21.4814 280.7054,39.5024 C305.5854,65.9524 321.0334,104.4534 319.1444,135.3054 C317.2594,166.1064 289.7474,208.7744 242.9974,208.7784 L242.9974,208.7784 Z" id="Fill-33" fill="#000020"></path>
            <path d="M190.4966,75.0002 C184.9736,75.0002 180.4966,70.5222 180.4966,65.0002 C180.4966,59.4772 184.9736,55.0002 190.4966,55.0002 C196.0186,55.0002 200.4966,59.4772 200.4966,65.0002 C200.4966,70.5222 196.0186,75.0002 190.4966,75.0002 M190.4956,47.3322 C180.7386,47.3322 172.8296,55.2422 172.8296,65.0002 C172.8296,74.7562 180.7386,82.6662 190.4956,82.6662 C200.2526,82.6662 208.1626,74.7562 208.1626,65.0002 C208.1626,55.2422 200.2526,47.3322 190.4956,47.3322" id="Fill-35" fill="#00A79D"></path>
        </g>
    </g>
</svg>