<svg xmlns="http://www.w3.org/2000/svg" viewBox="0 0 96 96">
  <title>lotus, therapy, meditation, relax</title>
  <path d="M87.2,57.4c.4-.8,4.4-7.9,2.9-10.5s-6.8-2.7-11.4-2.6c2-10.5-.1-20.4-2.3-21.6S67,24.2,61.3,28C57.5,17.6,50.6,10,48,10s-9.5,7.6-13.4,18c-5.6-3.8-12.7-6.6-15.1-5.3s-4.4,11-2.3,21.6c-4.6-.1-10.2.6-11.4,2.6S8.7,60.4,17.1,67.5c-3.4,1.8-5.1,4-5.1,6.5,0,7.9,18.1,12,36,12s36-4.1,36-12c0-2.5-1.8-4.6-5.2-6.5A36.4,36.4,0,0,0,87.2,57.4Zm-.8-8.3c-.7,2.9-4.7,12.7-13.8,18a32.7,32.7,0,0,1-14.5,3.8l1-.6A39.8,39.8,0,0,0,74.5,55.6a33.7,33.7,0,0,0,3.2-7.3A26.1,26.1,0,0,1,86.4,49.1ZM74.3,26.4c1.1,3,3.3,15.9-3.2,27.2-4.3,7.5-11.2,12-16.2,14.4C59.3,62.1,64,52.4,64,42a41.7,41.7,0,0,0-1.4-10.1A35.3,35.3,0,0,1,74.3,26.4ZM48,14.2C50.8,16.3,60,28,60,42S50.8,67.7,48,69.8C45.2,67.7,36,56,36,42S45.2,16.3,48,14.2ZM21.6,26.4a35.5,35.5,0,0,1,11.8,5.5A37.3,37.3,0,0,0,32,42c0,10.4,4.6,20.1,9.1,26C36,65.6,29.2,61.1,24.9,53.6,18.4,42.4,20.5,29.4,21.6,26.4ZM9.6,49.1a25.8,25.8,0,0,1,8.7-.8,33.4,33.4,0,0,0,3.1,7.3c4.3,7.5,10.8,12.1,15.4,14.7l1.1.6a32.7,32.7,0,0,1-14.5-3.8C14.3,61.8,10.2,52,9.6,49.1ZM80,74c0,2.8-11,8-32,8s-32-5.2-32-8c0-.9,1.3-2.3,4.8-3.8l.6.3c5.8,3.3,12.8,4.4,18.6,4.4a33.4,33.4,0,0,0,8-.8,33.4,33.4,0,0,0,8,.8c5.7,0,12.8-1.1,18.6-4.4l.5-.4C78.7,71.7,80,73.1,80,74Z" fill="#646464"/>
</svg>
